<svg width="30" height="30" viewBox="0 0 30 30" fill="none" xmlns="http://www.w3.org/2000/svg">
<path d="M5.32495 13.775V19.9875C5.32495 22.2625 5.32495 22.2625 7.47495 23.7125L13.3875 27.125C14.275 27.6375 15.7249 27.6375 16.6124 27.125L22.5249 23.7125C24.6749 22.2625 24.6749 22.2625 24.6749 19.9875V13.775C24.6749 11.5 24.6749 11.5 22.5249 10.05L16.6124 6.63749C15.7249 6.12499 14.275 6.12499 13.3875 6.63749L7.47495 10.05C5.32495 11.5 5.32495 11.5 5.32495 13.775Z" stroke="#191919" stroke-width="1.5" stroke-linecap="round" stroke-linejoin="round"/>
<path d="M21.875 9.5375V6.25C21.875 3.75 20.625 2.5 18.125 2.5H11.875C9.375 2.5 8.125 3.75 8.125 6.25V9.45" stroke="#191919" stroke-width="1.5" stroke-linecap="round" stroke-linejoin="round"/>
<path d="M15.7875 13.7375L16.5 14.85C16.6125 15.025 16.8625 15.2 17.05 15.25L18.325 15.575C19.1125 15.775 19.325 16.45 18.8125 17.075L17.975 18.0875C17.85 18.25 17.75 18.5375 17.7625 18.7375L17.8375 20.05C17.8875 20.8625 17.3125 21.275 16.5625 20.975L15.3375 20.4875C15.15 20.4125 14.8375 20.4125 14.65 20.4875L13.425 20.975C12.675 21.275 12.1 20.85 12.15 20.05L12.225 18.7375C12.2375 18.5375 12.1375 18.2375 12.0125 18.0875L11.175 17.075C10.6625 16.45 10.875 15.775 11.6625 15.575L12.9375 15.25C13.1375 15.2 13.3875 15.0125 13.4875 14.85L14.2 13.7375C14.65 13.0625 15.35 13.0625 15.7875 13.7375Z" stroke="#191919" stroke-width="1.5" stroke-linecap="round" stroke-linejoin="round"/>
</svg>
