<svg width="52" height="48" viewBox="0 0 52 48" fill="none" xmlns="http://www.w3.org/2000/svg">
<path fill-rule="evenodd" clip-rule="evenodd" d="M16.1834 18.1086C16.1836 10.9184 21.8359 5.08972 28.8082 5.08972C35.7806 5.08972 41.4329 10.9186 41.4329 18.109L41.4326 18.2039V19.5556C41.4326 23.6506 42.9307 27.3814 45.3949 30.2022C45.7064 30.5587 45.8261 31.0512 45.7146 31.517C45.6032 31.9828 45.275 32.3613 44.8385 32.5275C41.9507 33.6269 38.9277 34.4378 35.8025 34.9264C35.8154 35.1053 35.8219 35.2859 35.8219 35.468C35.8219 39.4626 32.6818 42.7009 28.8082 42.7009C24.9346 42.7009 21.7944 39.4626 21.7944 35.468C21.7944 35.286 21.801 35.1054 21.8139 34.9265C18.6884 34.4379 15.6651 33.627 12.7771 32.5275C12.3406 32.3613 12.0124 31.9828 11.901 31.517C11.7895 31.0512 11.9093 30.5587 12.2207 30.2022C14.6849 27.3814 16.1831 23.6506 16.1831 19.5556L16.1834 18.1086ZM24.6041 35.2737C24.6013 35.3381 24.5999 35.4028 24.5999 35.468C24.5999 37.8648 26.484 39.8078 28.8082 39.8078C31.1323 39.8078 33.0164 37.8648 33.0164 35.468C33.0164 35.4028 33.015 35.338 33.0123 35.2736C31.6272 35.4023 30.2248 35.468 28.8078 35.468C27.3911 35.468 25.9889 35.4023 24.6041 35.2737Z" fill="#0F172A"/>
<path d="M29.4228 39.1294C29.9348 39.1173 30.4262 38.9191 30.81 38.57C31.1938 38.2208 31.4453 37.7432 31.52 37.2216H27.2443C27.3211 37.7574 27.5843 38.2462 27.985 38.5972C28.3858 38.9481 28.8967 39.1373 29.4228 39.1294Z" fill="#3D4555"/>
</svg>
