<svg width="24" height="25" viewBox="0 0 24 25" fill="none" xmlns="http://www.w3.org/2000/svg">
<path d="M19.959 3.87696C18.973 2.82243 17.3744 2.82243 16.3884 3.87696L10.2401 10.4527C9.87171 10.8467 9.57948 11.3145 9.3801 11.8293L8.15701 14.9871C7.98952 15.4196 8.08209 15.9173 8.39154 16.2483C8.701 16.5793 9.1664 16.6783 9.57074 16.4992L12.5237 15.1911C13.0051 14.9778 13.4425 14.6653 13.8109 14.2712L19.959 7.69574C20.945 6.64121 20.945 4.93149 19.959 3.87696Z" fill="#0F172A"/>
<path d="M7.35324 5.40059C6.35725 5.40059 5.54983 6.26414 5.54983 7.32937V17.359C5.54983 18.4243 6.35725 19.2878 7.35324 19.2878H16.731C17.727 19.2878 18.5344 18.4243 18.5344 17.359V13.8872C18.5344 13.2481 19.0188 12.73 19.6164 12.73C20.214 12.73 20.6985 13.2481 20.6985 13.8872V17.359C20.6985 19.7025 18.9222 21.6023 16.731 21.6023H7.35324C5.16205 21.6023 3.38574 19.7025 3.38574 17.359V7.32937C3.38574 4.98586 5.16205 3.08606 7.35324 3.08606H10.5994C11.197 3.08606 11.6814 3.60419 11.6814 4.24333C11.6814 4.88247 11.197 5.40059 10.5994 5.40059H7.35324Z" fill="#0F172A"/>
</svg>
