<svg width="60" height="70" viewBox="0 0 60 70" fill="none" xmlns="http://www.w3.org/2000/svg">
<path d="M11.7 70C8.9 70 6.73333 69.2 5.2 67.6C3.66667 65.9333 2.56667 63.7667 1.9 61.1C1.23333 58.3667 0.833333 55.3667 0.7 52.1C0.566667 48.8333 0.5 45.5667 0.5 42.3C0.5 40.7 0.5 38.6333 0.5 36.1C0.566667 33.5 0.6 30.8667 0.6 28.2C0.666667 25.4667 0.733333 23.0667 0.8 21C0.866667 18.8667 0.933333 17.4 1 16.6C1.13333 11.8 2.13333 7.83334 4 4.7C5.86667 1.56667 8.63333 0 12.3 0C16.5 0 19.3667 1.83333 20.9 5.5C22.5 9.1 23.3 14.3 23.3 21.1C23.3 21.8333 23.3 22.8333 23.3 24.1C24.5667 21.7667 26.1 19.2333 27.9 16.5C29.7667 13.7667 31.8 11.1667 34 8.7C36.2 6.23333 38.5333 4.23333 41 2.7C43.4667 1.1 45.9667 0.300002 48.5 0.300002C51.6333 0.300002 54.2 1.5 56.2 3.9C58.2667 6.23333 59.3 9.13333 59.3 12.6C59.3 15.7333 58.3667 18.8 56.5 21.8C54.7 24.7333 52.2 27.4 49 29.8C45.8 32.2 42.0667 34.1667 37.8 35.7C40.2667 36.8333 42.7667 38.2 45.3 39.8C47.8333 41.3333 50.1333 43.0667 52.2 45C54.3333 46.8667 56.0333 48.9 57.3 51.1C58.5667 53.3 59.2 55.6667 59.2 58.2C59.2 61 58.6333 63.2667 57.5 65C56.4333 66.7333 55.0333 68 53.3 68.8C51.5667 69.6 49.7333 70 47.8 70C44.4 70 41.2333 68.9 38.3 66.7C35.3667 64.5 32.6333 61.6333 30.1 58.1C27.6333 54.5667 25.3333 50.8667 23.2 47C23.2 49.9333 23.0667 52.7667 22.8 55.5C22.6 58.2333 22.1333 60.7 21.4 62.9C20.6667 65.1 19.5333 66.8333 18 68.1C16.4667 69.3667 14.3667 70 11.7 70Z" fill="#FF6A06"/>
</svg>
