<svg width="140" height="35" viewBox="0 0 140 35" fill="none" xmlns="http://www.w3.org/2000/svg">
<path d="M5.576 35C4.232 35 3.192 34.616 2.456 33.848C1.72 33.048 1.192 32.008 0.872 30.728C0.552 29.416 0.36 27.976 0.296 26.408C0.232 24.84 0.2 23.272 0.2 21.704C0.2 20.936 0.2 19.944 0.2 18.728C0.232 17.48 0.248 16.216 0.248 14.936C0.28 13.624 0.312 12.472 0.344 11.48C0.376 10.456 0.408 9.752 0.44 9.368C0.504 7.064 0.984 5.16 1.88 3.656C2.776 2.152 4.104 1.4 5.864 1.4C7.88 1.4 9.256 2.28 9.992 4.04C10.76 5.768 11.144 8.264 11.144 11.528C11.144 11.88 11.144 12.36 11.144 12.968C11.752 11.848 12.488 10.632 13.352 9.32C14.248 8.008 15.224 6.76 16.28 5.576C17.336 4.392 18.456 3.432 19.64 2.696C20.824 1.928 22.024 1.544 23.24 1.544C24.744 1.544 25.976 2.12 26.936 3.272C27.928 4.392 28.424 5.784 28.424 7.448C28.424 8.952 27.976 10.424 27.08 11.864C26.216 13.272 25.016 14.552 23.48 15.704C21.944 16.856 20.152 17.8 18.104 18.536C19.288 19.08 20.488 19.736 21.704 20.504C22.92 21.24 24.024 22.072 25.016 23C26.04 23.896 26.856 24.872 27.464 25.928C28.072 26.984 28.376 28.12 28.376 29.336C28.376 30.68 28.104 31.768 27.56 32.6C27.048 33.432 26.376 34.04 25.544 34.424C24.712 34.808 23.832 35 22.904 35C21.272 35 19.752 34.472 18.344 33.416C16.936 32.36 15.624 30.984 14.408 29.288C13.224 27.592 12.12 25.816 11.096 23.96C11.096 25.368 11.032 26.728 10.904 28.04C10.808 29.352 10.584 30.536 10.232 31.592C9.88 32.648 9.336 33.48 8.6 34.088C7.864 34.696 6.856 35 5.576 35ZM36.5454 11.72C34.9774 11.72 33.6494 11.16 32.5614 10.04C31.4734 8.888 30.9294 7.496 30.9294 5.864C30.9294 4.776 31.1694 3.8 31.6494 2.936C32.1614 2.072 32.8334 1.384 33.6654 0.871999C34.5294 0.327998 35.4894 0.0559978 36.5454 0.0559978C37.5694 0.0559978 38.4974 0.327998 39.3294 0.871999C40.1934 1.384 40.8814 2.072 41.3934 2.936C41.9054 3.8 42.1614 4.776 42.1614 5.864C42.1614 6.952 41.9054 7.944 41.3934 8.84C40.8814 9.704 40.1934 10.408 39.3294 10.952C38.4974 11.464 37.5694 11.72 36.5454 11.72ZM36.5454 35C35.2654 35 34.3054 34.632 33.6654 33.896C33.0574 33.16 32.6414 32.04 32.4174 30.536C32.2254 29 32.1134 27.032 32.0814 24.632C32.0814 22.232 32.1774 20.264 32.3694 18.728C32.5934 17.192 33.0254 16.072 33.6654 15.368C34.3054 14.632 35.2654 14.264 36.5454 14.264C37.8254 14.264 38.7694 14.632 39.3774 15.368C40.0174 16.072 40.4494 17.192 40.6734 18.728C40.8974 20.264 41.0094 22.232 41.0094 24.632C41.0414 27.032 40.9454 29 40.7214 30.536C40.4974 32.04 40.0654 33.16 39.4254 33.896C38.7854 34.632 37.8254 35 36.5454 35ZM99.8004 35C98.7124 35 97.8164 34.648 97.1124 33.944C96.4404 33.208 95.9284 32.232 95.5764 31.016C95.2244 29.8 94.9844 28.408 94.8564 26.84C94.7284 25.272 94.6644 23.656 94.6644 21.992C94.6644 20.872 94.6804 19.736 94.7124 18.584C94.7764 17.4 94.9364 16.312 95.1924 15.32C95.4804 14.328 95.9444 13.528 96.5844 12.92C97.2564 12.28 98.2004 11.96 99.4164 11.96C100.28 11.96 101.064 12.168 101.768 12.584C102.472 12.968 102.92 13.56 103.112 14.36C103.848 13.688 104.776 13.208 105.896 12.92C107.048 12.6 108.232 12.44 109.448 12.44C110.472 12.44 111.512 12.696 112.568 13.208C113.624 13.688 114.52 14.36 115.256 15.224C115.992 16.088 116.36 17.064 116.36 18.152C116.36 19.08 116.008 19.96 115.304 20.792C114.632 21.624 113.672 22.04 112.424 22.04C111.88 22.04 111.432 21.976 111.08 21.848C110.728 21.688 110.392 21.544 110.072 21.416C109.752 21.288 109.368 21.224 108.92 21.224C107.736 21.224 106.648 21.704 105.656 22.664C104.696 23.592 104.216 24.856 104.216 26.456C104.216 27.288 104.184 28.2 104.12 29.192C104.088 30.152 103.944 31.08 103.688 31.976C103.464 32.872 103.048 33.608 102.44 34.184C101.832 34.728 100.952 35 99.8004 35Z" fill="#FF6A06"/>
<path d="M55.1765 35C52.8085 35 50.7605 34.44 49.0325 33.32C47.3365 32.2 46.0245 30.744 45.0965 28.952C44.2005 27.16 43.7525 25.288 43.7525 23.336C43.7525 20.84 44.2485 18.792 45.2405 17.192C46.2645 15.592 47.5605 14.408 49.1285 13.64C50.6965 12.84 52.3285 12.44 54.0245 12.44C54.8245 12.44 55.6405 12.536 56.4725 12.728C57.3045 12.888 58.0885 13.176 58.8245 13.592C58.6965 12.216 58.4085 10.872 57.9605 9.56C57.5445 8.216 57.3365 6.856 57.3365 5.48C57.3365 4.072 57.7685 3.032 58.6325 2.36C59.4965 1.688 60.4245 1.352 61.4165 1.352C62.5685 1.352 63.5605 1.72 64.3925 2.456C65.2245 3.192 65.9285 4.168 66.5045 5.384C67.1125 6.6 67.5925 7.976 67.9445 9.512C68.2965 11.016 68.5525 12.568 68.7125 14.168C68.8725 15.768 68.9525 17.304 68.9525 18.776C68.9525 19.256 68.9205 19.992 68.8565 20.984C68.8245 21.976 68.6805 23.08 68.4245 24.296C68.1685 25.512 67.7525 26.744 67.1765 27.992C66.6325 29.24 65.8485 30.392 64.8245 31.448C63.8325 32.504 62.5525 33.368 60.9845 34.04C59.4165 34.68 57.4805 35 55.1765 35ZM55.4645 27.416C56.3285 27.416 57.0805 27.096 57.7205 26.456C58.3605 25.784 58.6805 25 58.6805 24.104C58.6805 23.208 58.3605 22.424 57.7205 21.752C57.0805 21.08 56.3285 20.744 55.4645 20.744C54.6005 20.744 53.8325 21.08 53.1605 21.752C52.5205 22.424 52.2005 23.208 52.2005 24.104C52.2005 25 52.5205 25.784 53.1605 26.456C53.8325 27.096 54.6005 27.416 55.4645 27.416ZM82.5924 35C80.1924 35 78.0804 34.536 76.2564 33.608C74.4644 32.648 73.0564 31.352 72.0324 29.72C71.0404 28.056 70.5444 26.152 70.5444 24.008C70.5444 21.928 71.0404 20.008 72.0324 18.248C73.0564 16.488 74.4484 15.08 76.2084 14.024C78.0004 12.968 80.0484 12.44 82.3524 12.44C84.4964 12.44 86.3364 12.872 87.8724 13.736C89.4084 14.6 90.5764 15.704 91.3764 17.048C92.2084 18.36 92.6244 19.752 92.6244 21.224C92.6244 22.696 92.2884 23.912 91.6164 24.872C90.9444 25.8 90.0644 26.52 88.9764 27.032C87.9204 27.512 86.7844 27.832 85.5684 27.992C84.3524 28.152 83.1844 28.184 82.0644 28.088C80.9444 27.96 80.0004 27.768 79.2324 27.512C79.8084 28.44 80.5284 29.08 81.3924 29.432C82.2884 29.752 83.2164 29.896 84.1764 29.864C85.1684 29.8 86.0644 29.688 86.8644 29.528C87.8564 29.304 88.6724 29.352 89.3124 29.672C89.9524 29.992 90.2884 30.504 90.3204 31.208C90.3524 31.784 90.1444 32.36 89.6964 32.936C89.2804 33.512 88.5124 34.008 87.3924 34.424C86.2724 34.808 84.6724 35 82.5924 35ZM79.3764 21.656C79.6964 22.168 80.1604 22.536 80.7684 22.76C81.3764 22.952 81.9844 23.016 82.5924 22.952C83.2324 22.888 83.7604 22.712 84.1764 22.424C84.6244 22.136 84.8484 21.736 84.8484 21.224C84.8484 20.68 84.6244 20.2 84.1764 19.784C83.7604 19.336 83.0884 19.112 82.1604 19.112C81.2644 19.112 80.5764 19.4 80.0964 19.976C79.6164 20.52 79.3764 21.08 79.3764 21.656Z" fill="#8258E2"/>
<path d="M126.065 35C124.497 35 123.057 34.76 121.745 34.28C120.465 33.8 119.441 33.08 118.673 32.12C117.905 31.128 117.521 29.88 117.521 28.376C117.521 27.096 117.905 26.008 118.673 25.112C119.441 24.216 120.465 23.528 121.745 23.048C123.057 22.568 124.497 22.328 126.065 22.328C126.993 22.328 127.841 22.408 128.609 22.568C129.377 22.696 129.905 22.856 130.193 23.048C130.193 22.312 129.889 21.672 129.281 21.128C128.673 20.552 127.617 20.264 126.113 20.264C125.409 20.264 124.849 20.328 124.433 20.456C124.049 20.552 123.697 20.68 123.377 20.84C123.057 21 122.689 21.144 122.273 21.272C121.889 21.368 121.361 21.416 120.689 21.416C119.697 21.416 118.897 21.16 118.289 20.648C117.713 20.104 117.425 19.288 117.425 18.2C117.425 17.208 117.697 16.36 118.241 15.656C118.817 14.92 119.553 14.312 120.449 13.832C121.345 13.352 122.305 13 123.329 12.776C124.385 12.552 125.393 12.44 126.353 12.44C129.201 12.44 131.521 12.968 133.313 14.024C135.105 15.048 136.433 16.392 137.297 18.056C138.161 19.72 138.593 21.528 138.593 23.48C138.593 24.568 138.497 25.576 138.305 26.504C138.145 27.432 137.921 28.152 137.633 28.664C138.081 29.048 138.417 29.496 138.641 30.008C138.897 30.52 139.025 31.048 139.025 31.592C139.025 32.488 138.721 33.288 138.113 33.992C137.537 34.664 136.705 35 135.617 35C134.785 35 134.129 34.872 133.649 34.616C133.169 34.36 132.689 34.024 132.209 33.608C131.441 34.056 130.593 34.408 129.665 34.664C128.737 34.888 127.537 35 126.065 35ZM127.025 30.152C127.761 30.152 128.305 30.008 128.657 29.72C129.041 29.4 129.233 29.048 129.233 28.664C129.233 28.28 129.041 27.944 128.657 27.656C128.305 27.336 127.761 27.176 127.025 27.176C126.321 27.176 125.777 27.336 125.393 27.656C125.009 27.944 124.817 28.28 124.817 28.664C124.817 29.048 125.009 29.4 125.393 29.72C125.777 30.008 126.321 30.152 127.025 30.152Z" fill="#E0BD06"/>
</svg>
