<svg width="72" height="11" viewBox="0 0 72 11" fill="none" xmlns="http://www.w3.org/2000/svg">
<path d="M5 0L6.12257 3.80041H9.75528L6.81636 6.14919L7.93893 9.94959L5 7.60081L2.06107 9.94959L3.18364 6.14919L0.244718 3.80041H3.87743L5 0Z" fill="#5B5454"/>
<path d="M20.5 0L21.7348 3.80041H25.7308L22.498 6.14919L23.7328 9.94959L20.5 7.60081L17.2672 9.94959L18.502 6.14919L15.2692 3.80041H19.2652L20.5 0Z" fill="#5B5454"/>
<path d="M36 0L37.1226 3.80041H40.7553L37.8164 6.14919L38.9389 9.94959L36 7.60081L33.0611 9.94959L34.1836 6.14919L31.2447 3.80041H34.8774L36 0Z" fill="#5B5454"/>
<path d="M51.5 0L52.7348 3.80041H56.7308L53.498 6.14919L54.7328 9.94959L51.5 7.60081L48.2672 9.94959L49.502 6.14919L46.2692 3.80041H50.2652L51.5 0Z" fill="#D9D9D9"/>
<path d="M67 0L68.1226 3.80041H71.7553L68.8164 6.14919L69.9389 9.94959L67 7.60081L64.0611 9.94959L65.1836 6.14919L62.2447 3.80041H65.8774L67 0Z" fill="#D9D9D9"/>
</svg>
