<svg width="54" height="49" viewBox="0 0 54 49" fill="none" xmlns="http://www.w3.org/2000/svg">
<path d="M31 16.5C31.2652 16.5 31.5196 16.6054 31.7071 16.7929C31.8946 16.9804 32 17.2348 32 17.5V21.7L37.213 18.05C37.288 17.9975 37.3759 17.9665 37.4672 17.9605C37.5586 17.9545 37.6498 17.9737 37.731 18.016C37.8122 18.0583 37.8802 18.1221 37.9276 18.2004C37.9751 18.2786 38.0001 18.3685 38 18.46V30.54C38.0001 30.6315 37.9751 30.7214 37.9276 30.7996C37.8802 30.8779 37.8122 30.9417 37.731 30.984C37.6498 31.0263 37.5586 31.0455 37.4672 31.0395C37.3759 31.0335 37.288 31.0025 37.213 30.95L32 27.3V31.5C32 31.7652 31.8946 32.0196 31.7071 32.2071C31.5196 32.3946 31.2652 32.5 31 32.5H17C16.7348 32.5 16.4804 32.3946 16.2929 32.2071C16.1054 32.0196 16 31.7652 16 31.5V17.5C16 17.2348 16.1054 16.9804 16.2929 16.7929C16.4804 16.6054 16.7348 16.5 17 16.5H31ZM30 18.5H18V30.5H30V18.5ZM22.4 21.329C22.4761 21.3288 22.5507 21.3503 22.615 21.391L26.97 24.162C27.0268 24.1981 27.0735 24.248 27.1059 24.307C27.1383 24.366 27.1553 24.4322 27.1553 24.4995C27.1553 24.5668 27.1383 24.633 27.1059 24.692C27.0735 24.751 27.0268 24.8009 26.97 24.837L22.615 27.61C22.5543 27.6487 22.4844 27.6703 22.4125 27.6725C22.3406 27.6748 22.2694 27.6576 22.2065 27.6228C22.1435 27.588 22.0911 27.5368 22.0548 27.4747C22.0184 27.4127 21.9995 27.3419 22 27.27V21.73C22 21.6239 22.0421 21.5222 22.1172 21.4472C22.1922 21.3721 22.2939 21.329 22.4 21.329ZM36 21.34L32 24.14V24.858L36 27.658V21.34Z" fill="#4DB036"/>
</svg>
