<svg width="39" height="39" viewBox="0 0 39 39" fill="none" xmlns="http://www.w3.org/2000/svg">
<path d="M35.5039 10.0723C34.2422 11.1569 32.6152 12.5846 30.623 14.3555L25.543 19.0703L35.6699 31.4551C36.4004 32.3626 36.7656 33.2591 36.7656 34.1445C36.7656 35.2956 36.3008 36.3027 35.3711 37.166C34.4414 38.0293 33.3789 38.4609 32.1836 38.4609C30.944 38.4609 29.8372 37.9297 28.8633 36.8672C26.8711 34.6979 23.584 30.791 19.002 25.1465C17.209 26.9395 14.431 29.5514 10.668 32.9824C9.47266 33.9785 8.5651 34.8086 7.94531 35.4727C6.97135 36.4909 5.87565 37 4.6582 37C3.46289 37 2.40039 36.5684 1.4707 35.7051C0.563151 34.8418 0.109375 33.8346 0.109375 32.6836C0.109375 31.3997 1.01693 29.9277 2.83203 28.2676C4.29297 27.0059 5.75391 25.7552 7.21484 24.5156C8.5651 23.1654 10.668 21.0957 13.5234 18.3066C12.2839 16.5801 11.0332 14.8535 9.77148 13.127C8.24414 11.0905 6.80534 9.50781 5.45508 8.37891C4.30404 7.42708 3.72852 6.35352 3.72852 5.1582C3.72852 4.00716 4.16016 2.98893 5.02344 2.10352C5.90885 1.19596 6.96029 0.742188 8.17773 0.742188C9.74935 0.742188 11.9186 2.32487 14.6855 5.49023L19.998 12.3301C21.9017 10.7363 23.7943 9.14258 25.6758 7.54883C28.0221 5.51237 29.7044 3.77474 30.7227 2.33594C31.6745 0.985677 32.8809 0.310547 34.3418 0.310547C35.5371 0.310547 36.5996 0.73112 37.5293 1.57227C38.4811 2.41341 38.957 3.40951 38.957 4.56055C38.957 5.99935 37.806 7.83659 35.5039 10.0723Z" fill="#17181A"/>
</svg>
